ISO-10303-21;
HEADER;
/* Generated by software containing ST-Developer
 * from STEP Tools, Inc. (www.steptools.com) 
 */

FILE_DESCRIPTION(
/* description */ (''),
/* implementation_level */ '2;1');

FILE_NAME(
/* name */ 'case housing.step',
/* time_stamp */ '2026-08-18T13:33:33+02:00',
/* author */ (''),
/* organization */ (''),
/* preprocessor_version */ 'ST-DEVELOPER v20.1',
/* originating_system */ 'Autodesk Translation Framework v15.8.0.0',
/* authorisation */ '');

FILE_SCHEMA (('AUTOMOTIVE_DESIGN { 1 0 10303 214 3 1 1 }'));
ENDSEC;

DATA;
#10=MECHANICAL_DESIGN_GEOMETRIC_PRESENTATION_REPRESENTATION('',(#14,#15),
#1450);
#11=SHAPE_REPRESENTATION_RELATIONSHIP('SRR','None',#1457,#12);
#12=ADVANCED_BREP_SHAPE_REPRESENTATION('',(#16,#17),#1449);
#13=FACE_BOUND('',#108,.T.);
#14=STYLED_ITEM('',(#1466),#16);
#15=STYLED_ITEM('',(#1466),#17);
#16=MANIFOLD_SOLID_BREP('Body11',#913);
#17=MANIFOLD_SOLID_BREP('Body12',#914);
#18=FACE_OUTER_BOUND('',#63,.T.);
#19=FACE_OUTER_BOUND('',#64,.T.);
#20=FACE_OUTER_BOUND('',#65,.T.);
#21=FACE_OUTER_BOUND('',#66,.T.);
#22=FACE_OUTER_BOUND('',#67,.T.);
#23=FACE_OUTER_BOUND('',#68,.T.);
#24=FACE_OUTER_BOUND('',#69,.T.);
#25=FACE_OUTER_BOUND('',#70,.T.);
#26=FACE_OUTER_BOUND('',#71,.T.);
#27=FACE_OUTER_BOUND('',#72,.T.);
#28=FACE_OUTER_BOUND('',#73,.T.);
#29=FACE_OUTER_BOUND('',#74,.T.);
#30=FACE_OUTER_BOUND('',#75,.T.);
#31=FACE_OUTER_BOUND('',#76,.T.);
#32=FACE_OUTER_BOUND('',#77,.T.);
#33=FACE_OUTER_BOUND('',#78,.T.);
#34=FACE_OUTER_BOUND('',#79,.T.);
#35=FACE_OUTER_BOUND('',#80,.T.);
#36=FACE_OUTER_BOUND('',#81,.T.);
#37=FACE_OUTER_BOUND('',#82,.T.);
#38=FACE_OUTER_BOUND('',#83,.T.);
#39=FACE_OUTER_BOUND('',#84,.T.);
#40=FACE_OUTER_BOUND('',#85,.T.);
#41=FACE_OUTER_BOUND('',#86,.T.);
#42=FACE_OUTER_BOUND('',#87,.T.);
#43=FACE_OUTER_BOUND('',#88,.T.);
#44=FACE_OUTER_BOUND('',#89,.T.);
#45=FACE_OUTER_BOUND('',#90,.T.);
#46=FACE_OUTER_BOUND('',#91,.T.);
#47=FACE_OUTER_BOUND('',#92,.T.);
#48=FACE_OUTER_BOUND('',#93,.T.);
#49=FACE_OUTER_BOUND('',#94,.T.);
#50=FACE_OUTER_BOUND('',#95,.T.);
#51=FACE_OUTER_BOUND('',#96,.T.);
#52=FACE_OUTER_BOUND('',#97,.T.);
#53=FACE_OUTER_BOUND('',#98,.T.);
#54=FACE_OUTER_BOUND('',#99,.T.);
#55=FACE_OUTER_BOUND('',#100,.T.);
#56=FACE_OUTER_BOUND('',#101,.T.);
#57=FACE_OUTER_BOUND('',#102,.T.);
#58=FACE_OUTER_BOUND('',#103,.T.);
#59=FACE_OUTER_BOUND('',#104,.T.);
#60=FACE_OUTER_BOUND('',#105,.T.);
#61=FACE_OUTER_BOUND('',#106,.T.);
#62=FACE_OUTER_BOUND('',#107,.T.);
#63=EDGE_LOOP('',(#571,#572,#573,#574));
#64=EDGE_LOOP('',(#575,#576,#577,#578));
#65=EDGE_LOOP('',(#579,#580,#581,#582));
#66=EDGE_LOOP('',(#583,#584,#585,#586));
#67=EDGE_LOOP('',(#587,#588,#589,#590));
#68=EDGE_LOOP('',(#591,#592,#593,#594));
#69=EDGE_LOOP('',(#595,#596,#597,#598));
#70=EDGE_LOOP('',(#599,#600,#601,#602,#603,#604,#605,#606,#607,#608));
#71=EDGE_LOOP('',(#609,#610,#611,#612));
#72=EDGE_LOOP('',(#613,#614,#615,#616));
#73=EDGE_LOOP('',(#617,#618,#619,#620));
#74=EDGE_LOOP('',(#621,#622,#623,#624));
#75=EDGE_LOOP('',(#625,#626,#627,#628));
#76=EDGE_LOOP('',(#629,#630,#631,#632));
#77=EDGE_LOOP('',(#633,#634,#635,#636));
#78=EDGE_LOOP('',(#637,#638,#639,#640));
#79=EDGE_LOOP('',(#641,#642,#643,#644));
#80=EDGE_LOOP('',(#645,#646,#647,#648));
#81=EDGE_LOOP('',(#649,#650,#651,#652));
#82=EDGE_LOOP('',(#653,#654,#655,#656));
#83=EDGE_LOOP('',(#657,#658,#659,#660));
#84=EDGE_LOOP('',(#661,#662,#663,#664));
#85=EDGE_LOOP('',(#665,#666,#667,#668));
#86=EDGE_LOOP('',(#669,#670,#671,#672));
#87=EDGE_LOOP('',(#673,#674,#675,#676));
#88=EDGE_LOOP('',(#677,#678,#679,#680));
#89=EDGE_LOOP('',(#681,#682,#683,#684));
#90=EDGE_LOOP('',(#685,#686,#687,#688));
#91=EDGE_LOOP('',(#689,#690,#691,#692));
#92=EDGE_LOOP('',(#693,#694,#695,#696));
#93=EDGE_LOOP('',(#697,#698,#699,#700,#701,#702,#703,#704,#705,#706));
#94=EDGE_LOOP('',(#707,#708,#709,#710));
#95=EDGE_LOOP('',(#711,#712,#713,#714));
#96=EDGE_LOOP('',(#715,#716,#717,#718));
#97=EDGE_LOOP('',(#719,#720,#721,#722));
#98=EDGE_LOOP('',(#723,#724,#725,#726));
#99=EDGE_LOOP('',(#727,#728,#729,#730));
#100=EDGE_LOOP('',(#731,#732,#733,#734));
#101=EDGE_LOOP('',(#735,#736,#737,#738));
#102=EDGE_LOOP('',(#739,#740,#741,#742));
#103=EDGE_LOOP('',(#743,#744,#745,#746));
#104=EDGE_LOOP('',(#747,#748,#749,#750));
#105=EDGE_LOOP('',(#751,#752,#753,#754));
#106=EDGE_LOOP('',(#755,#756,#757,#758,#759,#760,#761,#762,#763,#764,#765,
#766,#767,#768,#769,#770,#771,#772,#773,#774,#775,#776,#777,#778,#779,#780,
#781,#782,#783,#784,#785,#786,#787,#788,#789,#790));
#107=EDGE_LOOP('',(#791,#792,#793,#794,#795,#796,#797,#798,#799,#800,#801,
#802,#803,#804,#805,#806));
#108=EDGE_LOOP('',(#807,#808,#809,#810,#811,#812,#813,#814,#815,#816,#817,
#818,#819,#820,#821,#822));
#109=LINE('',#1195,#235);
#110=LINE('',#1197,#236);
#111=LINE('',#1199,#237);
#112=LINE('',#1200,#238);
#113=LINE('',#1203,#239);
#114=LINE('',#1205,#240);
#115=LINE('',#1206,#241);
#116=LINE('',#1209,#242);
#117=LINE('',#1211,#243);
#118=LINE('',#1212,#244);
#119=LINE('',#1214,#245);
#120=LINE('',#1215,#246);
#121=LINE('',#1221,#247);
#122=LINE('',#1223,#248);
#123=LINE('',#1225,#249);
#124=LINE('',#1226,#250);
#125=LINE('',#1229,#251);
#126=LINE('',#1231,#252);
#127=LINE('',#1233,#253);
#128=LINE('',#1235,#254);
#129=LINE('',#1237,#255);
#130=LINE('',#1239,#256);
#131=LINE('',#1241,#257);
#132=LINE('',#1243,#258);
#133=LINE('',#1244,#259);
#134=LINE('',#1247,#260);
#135=LINE('',#1249,#261);
#136=LINE('',#1250,#262);
#137=LINE('',#1253,#263);
#138=LINE('',#1254,#264);
#139=LINE('',#1257,#265);
#140=LINE('',#1258,#266);
#141=LINE('',#1260,#267);
#142=LINE('',#1263,#268);
#143=LINE('',#1265,#269);
#144=LINE('',#1266,#270);
#145=LINE('',#1269,#271);
#146=LINE('',#1271,#272);
#147=LINE('',#1272,#273);
#148=LINE('',#1275,#274);
#149=LINE('',#1277,#275);
#150=LINE('',#1278,#276);
#151=LINE('',#1281,#277);
#152=LINE('',#1283,#278);
#153=LINE('',#1284,#279);
#154=LINE('',#1287,#280);
#155=LINE('',#1289,#281);
#156=LINE('',#1290,#282);
#157=LINE('',#1293,#283);
#158=LINE('',#1295,#284);
#159=LINE('',#1296,#285);
#160=LINE('',#1299,#286);
#161=LINE('',#1301,#287);
#162=LINE('',#1302,#288);
#163=LINE('',#1305,#289);
#164=LINE('',#1307,#290);
#165=LINE('',#1308,#291);
#166=LINE('',#1311,#292);
#167=LINE('',#1313,#293);
#168=LINE('',#1314,#294);
#169=LINE('',#1317,#295);
#170=LINE('',#1319,#296);
#171=LINE('',#1320,#297);
#172=LINE('',#1323,#298);
#173=LINE('',#1325,#299);
#174=LINE('',#1326,#300);
#175=LINE('',#1329,#301);
#176=LINE('',#1331,#302);
#177=LINE('',#1332,#303);
#178=LINE('',#1335,#304);
#179=LINE('',#1337,#305);
#180=LINE('',#1338,#306);
#181=LINE('',#1341,#307);
#182=LINE('',#1343,#308);
#183=LINE('',#1344,#309);
#184=LINE('',#1346,#310);
#185=LINE('',#1347,#311);
#186=LINE('',#1351,#312);
#187=LINE('',#1353,#313);
#188=LINE('',#1355,#314);
#189=LINE('',#1356,#315);
#190=LINE('',#1359,#316);
#191=LINE('',#1361,#317);
#192=LINE('',#1362,#318);
#193=LINE('',#1365,#319);
#194=LINE('',#1367,#320);
#195=LINE('',#1368,#321);
#196=LINE('',#1371,#322);
#197=LINE('',#1373,#323);
#198=LINE('',#1374,#324);
#199=LINE('',#1375,#325);
#200=LINE('',#1378,#326);
#201=LINE('',#1380,#327);
#202=LINE('',#1381,#328);
#203=LINE('',#1384,#329);
#204=LINE('',#1386,#330);
#205=LINE('',#1387,#331);
#206=LINE('',#1390,#332);
#207=LINE('',#1392,#333);
#208=LINE('',#1393,#334);
#209=LINE('',#1396,#335);
#210=LINE('',#1398,#336);
#211=LINE('',#1399,#337);
#212=LINE('',#1402,#338);
#213=LINE('',#1404,#339);
#214=LINE('',#1405,#340);
#215=LINE('',#1408,#341);
#216=LINE('',#1410,#342);
#217=LINE('',#1411,#343);
#218=LINE('',#1414,#344);
#219=LINE('',#1416,#345);
#220=LINE('',#1417,#346);
#221=LINE('',#1420,#347);
#222=LINE('',#1422,#348);
#223=LINE('',#1423,#349);
#224=LINE('',#1426,#350);
#225=LINE('',#1428,#351);
#226=LINE('',#1429,#352);
#227=LINE('',#1432,#353);
#228=LINE('',#1434,#354);
#229=LINE('',#1435,#355);
#230=LINE('',#1438,#356);
#231=LINE('',#1440,#357);
#232=LINE('',#1441,#358);
#233=LINE('',#1443,#359);
#234=LINE('',#1444,#360);
#235=VECTOR('',#977,10.);
#236=VECTOR('',#978,10.);
#237=VECTOR('',#979,10.);
#238=VECTOR('',#980,10.);
#239=VECTOR('',#983,10.);
#240=VECTOR('',#984,10.);
#241=VECTOR('',#985,10.);
#242=VECTOR('',#988,10.);
#243=VECTOR('',#989,10.);
#244=VECTOR('',#990,10.);
#245=VECTOR('',#993,10.);
#246=VECTOR('',#994,10.);
#247=VECTOR('',#1001,10.);
#248=VECTOR('',#1002,10.);
#249=VECTOR('',#1003,10.);
#250=VECTOR('',#1004,10.);
#251=VECTOR('',#1007,10.);
#252=VECTOR('',#1008,10.);
#253=VECTOR('',#1009,10.);
#254=VECTOR('',#1010,10.);
#255=VECTOR('',#1011,10.);
#256=VECTOR('',#1012,10.);
#257=VECTOR('',#1013,10.);
#258=VECTOR('',#1014,10.);
#259=VECTOR('',#1015,10.);
#260=VECTOR('',#1018,10.);
#261=VECTOR('',#1019,10.);
#262=VECTOR('',#1020,10.);
#263=VECTOR('',#1023,10.);
#264=VECTOR('',#1024,10.);
#265=VECTOR('',#1027,10.);
#266=VECTOR('',#1028,10.);
#267=VECTOR('',#1031,10.);
#268=VECTOR('',#1034,10.);
#269=VECTOR('',#1035,10.);
#270=VECTOR('',#1036,10.);
#271=VECTOR('',#1039,10.);
#272=VECTOR('',#1040,10.);
#273=VECTOR('',#1041,10.);
#274=VECTOR('',#1044,10.);
#275=VECTOR('',#1045,10.);
#276=VECTOR('',#1046,10.);
#277=VECTOR('',#1049,10.);
#278=VECTOR('',#1050,10.);
#279=VECTOR('',#1051,10.);
#280=VECTOR('',#1054,10.);
#281=VECTOR('',#1055,10.);
#282=VECTOR('',#1056,10.);
#283=VECTOR('',#1059,10.);
#284=VECTOR('',#1060,10.);
#285=VECTOR('',#1061,10.);
#286=VECTOR('',#1064,10.);
#287=VECTOR('',#1065,10.);
#288=VECTOR('',#1066,10.);
#289=VECTOR('',#1069,10.);
#290=VECTOR('',#1070,10.);
#291=VECTOR('',#1071,10.);
#292=VECTOR('',#1074,10.);
#293=VECTOR('',#1075,10.);
#294=VECTOR('',#1076,10.);
#295=VECTOR('',#1079,10.);
#296=VECTOR('',#1080,10.);
#297=VECTOR('',#1081,10.);
#298=VECTOR('',#1084,10.);
#299=VECTOR('',#1085,10.);
#300=VECTOR('',#1086,10.);
#301=VECTOR('',#1089,10.);
#302=VECTOR('',#1090,10.);
#303=VECTOR('',#1091,10.);
#304=VECTOR('',#1094,10.);
#305=VECTOR('',#1095,10.);
#306=VECTOR('',#1096,10.);
#307=VECTOR('',#1099,10.);
#308=VECTOR('',#1100,10.);
#309=VECTOR('',#1101,10.);
#310=VECTOR('',#1104,10.);
#311=VECTOR('',#1105,10.);
#312=VECTOR('',#1108,10.);
#313=VECTOR('',#1109,10.);
#314=VECTOR('',#1110,10.);
#315=VECTOR('',#1111,10.);
#316=VECTOR('',#1114,10.);
#317=VECTOR('',#1115,10.);
#318=VECTOR('',#1116,10.);
#319=VECTOR('',#1119,10.);
#320=VECTOR('',#1120,10.);
#321=VECTOR('',#1121,10.);
#322=VECTOR('',#1124,10.);
#323=VECTOR('',#1125,10.);
#324=VECTOR('',#1126,10.);
#325=VECTOR('',#1127,10.);
#326=VECTOR('',#1130,10.);
#327=VECTOR('',#1131,10.);
#328=VECTOR('',#1132,10.);
#329=VECTOR('',#1135,10.);
#330=VECTOR('',#1136,10.);
#331=VECTOR('',#1137,10.);
#332=VECTOR('',#1140,10.);
#333=VECTOR('',#1141,10.);
#334=VECTOR('',#1142,10.);
#335=VECTOR('',#1145,10.);
#336=VECTOR('',#1146,10.);
#337=VECTOR('',#1147,10.);
#338=VECTOR('',#1150,10.);
#339=VECTOR('',#1151,10.);
#340=VECTOR('',#1152,10.);
#341=VECTOR('',#1155,10.);
#342=VECTOR('',#1156,10.);
#343=VECTOR('',#1157,10.);
#344=VECTOR('',#1160,10.);
#345=VECTOR('',#1161,10.);
#346=VECTOR('',#1162,10.);
#347=VECTOR('',#1165,10.);
#348=VECTOR('',#1166,10.);
#349=VECTOR('',#1167,10.);
#350=VECTOR('',#1170,10.);
#351=VECTOR('',#1171,10.);
#352=VECTOR('',#1172,10.);
#353=VECTOR('',#1175,10.);
#354=VECTOR('',#1176,10.);
#355=VECTOR('',#1177,10.);
#356=VECTOR('',#1180,10.);
#357=VECTOR('',#1181,10.);
#358=VECTOR('',#1182,10.);
#359=VECTOR('',#1185,10.);
#360=VECTOR('',#1186,10.);
#361=VERTEX_POINT('',#1193);
#362=VERTEX_POINT('',#1194);
#363=VERTEX_POINT('',#1196);
#364=VERTEX_POINT('',#1198);
#365=VERTEX_POINT('',#1202);
#366=VERTEX_POINT('',#1204);
#367=VERTEX_POINT('',#1208);
#368=VERTEX_POINT('',#1210);
#369=VERTEX_POINT('',#1219);
#370=VERTEX_POINT('',#1220);
#371=VERTEX_POINT('',#1222);
#372=VERTEX_POINT('',#1224);
#373=VERTEX_POINT('',#1228);
#374=VERTEX_POINT('',#1230);
#375=VERTEX_POINT('',#1232);
#376=VERTEX_POINT('',#1234);
#377=VERTEX_POINT('',#1236);
#378=VERTEX_POINT('',#1238);
#379=VERTEX_POINT('',#1240);
#380=VERTEX_POINT('',#1242);
#381=VERTEX_POINT('',#1246);
#382=VERTEX_POINT('',#1248);
#383=VERTEX_POINT('',#1252);
#384=VERTEX_POINT('',#1256);
#385=VERTEX_POINT('',#1262);
#386=VERTEX_POINT('',#1264);
#387=VERTEX_POINT('',#1268);
#388=VERTEX_POINT('',#1270);
#389=VERTEX_POINT('',#1274);
#390=VERTEX_POINT('',#1276);
#391=VERTEX_POINT('',#1280);
#392=VERTEX_POINT('',#1282);
#393=VERTEX_POINT('',#1286);
#394=VERTEX_POINT('',#1288);
#395=VERTEX_POINT('',#1292);
#396=VERTEX_POINT('',#1294);
#397=VERTEX_POINT('',#1298);
#398=VERTEX_POINT('',#1300);
#399=VERTEX_POINT('',#1304);
#400=VERTEX_POINT('',#1306);
#401=VERTEX_POINT('',#1310);
#402=VERTEX_POINT('',#1312);
#403=VERTEX_POINT('',#1316);
#404=VERTEX_POINT('',#1318);
#405=VERTEX_POINT('',#1322);
#406=VERTEX_POINT('',#1324);
#407=VERTEX_POINT('',#1328);
#408=VERTEX_POINT('',#1330);
#409=VERTEX_POINT('',#1334);
#410=VERTEX_POINT('',#1336);
#411=VERTEX_POINT('',#1340);
#412=VERTEX_POINT('',#1342);
#413=VERTEX_POINT('',#1349);
#414=VERTEX_POINT('',#1350);
#415=VERTEX_POINT('',#1352);
#416=VERTEX_POINT('',#1354);
#417=VERTEX_POINT('',#1358);
#418=VERTEX_POINT('',#1360);
#419=VERTEX_POINT('',#1364);
#420=VERTEX_POINT('',#1366);
#421=VERTEX_POINT('',#1370);
#422=VERTEX_POINT('',#1372);
#423=VERTEX_POINT('',#1377);
#424=VERTEX_POINT('',#1379);
#425=VERTEX_POINT('',#1383);
#426=VERTEX_POINT('',#1385);
#427=VERTEX_POINT('',#1389);
#428=VERTEX_POINT('',#1391);
#429=VERTEX_POINT('',#1395);
#430=VERTEX_POINT('',#1397);
#431=VERTEX_POINT('',#1401);
#432=VERTEX_POINT('',#1403);
#433=VERTEX_POINT('',#1407);
#434=VERTEX_POINT('',#1409);
#435=VERTEX_POINT('',#1413);
#436=VERTEX_POINT('',#1415);
#437=VERTEX_POINT('',#1419);
#438=VERTEX_POINT('',#1421);
#439=VERTEX_POINT('',#1425);
#440=VERTEX_POINT('',#1427);
#441=VERTEX_POINT('',#1431);
#442=VERTEX_POINT('',#1433);
#443=VERTEX_POINT('',#1437);
#444=VERTEX_POINT('',#1439);
#445=EDGE_CURVE('',#361,#362,#109,.T.);
#446=EDGE_CURVE('',#362,#363,#110,.T.);
#447=EDGE_CURVE('',#364,#363,#111,.T.);
#448=EDGE_CURVE('',#361,#364,#112,.T.);
#449=EDGE_CURVE('',#365,#361,#113,.T.);
#450=EDGE_CURVE('',#366,#364,#114,.T.);
#451=EDGE_CURVE('',#365,#366,#115,.T.);
#452=EDGE_CURVE('',#367,#365,#116,.T.);
#453=EDGE_CURVE('',#368,#366,#117,.T.);
#454=EDGE_CURVE('',#367,#368,#118,.T.);
#455=EDGE_CURVE('',#362,#367,#119,.T.);
#456=EDGE_CURVE('',#363,#368,#120,.T.);
#457=EDGE_CURVE('',#369,#370,#121,.T.);
#458=EDGE_CURVE('',#371,#369,#122,.T.);
#459=EDGE_CURVE('',#372,#371,#123,.T.);
#460=EDGE_CURVE('',#370,#372,#124,.T.);
#461=EDGE_CURVE('',#370,#373,#125,.T.);
#462=EDGE_CURVE('',#373,#374,#126,.T.);
#463=EDGE_CURVE('',#374,#375,#127,.T.);
#464=EDGE_CURVE('',#375,#376,#128,.T.);
#465=EDGE_CURVE('',#377,#376,#129,.T.);
#466=EDGE_CURVE('',#378,#377,#130,.T.);
#467=EDGE_CURVE('',#378,#379,#131,.T.);
#468=EDGE_CURVE('',#379,#380,#132,.T.);
#469=EDGE_CURVE('',#369,#380,#133,.T.);
#470=EDGE_CURVE('',#374,#381,#134,.T.);
#471=EDGE_CURVE('',#382,#381,#135,.T.);
#472=EDGE_CURVE('',#375,#382,#136,.T.);
#473=EDGE_CURVE('',#383,#382,#137,.T.);
#474=EDGE_CURVE('',#376,#383,#138,.T.);
#475=EDGE_CURVE('',#384,#372,#139,.T.);
#476=EDGE_CURVE('',#373,#384,#140,.T.);
#477=EDGE_CURVE('',#381,#384,#141,.T.);
#478=EDGE_CURVE('',#385,#378,#142,.T.);
#479=EDGE_CURVE('',#386,#377,#143,.T.);
#480=EDGE_CURVE('',#385,#386,#144,.T.);
#481=EDGE_CURVE('',#387,#385,#145,.T.);
#482=EDGE_CURVE('',#388,#386,#146,.T.);
#483=EDGE_CURVE('',#387,#388,#147,.T.);
#484=EDGE_CURVE('',#389,#387,#148,.T.);
#485=EDGE_CURVE('',#390,#388,#149,.T.);
#486=EDGE_CURVE('',#389,#390,#150,.T.);
#487=EDGE_CURVE('',#391,#389,#151,.T.);
#488=EDGE_CURVE('',#392,#390,#152,.T.);
#489=EDGE_CURVE('',#391,#392,#153,.T.);
#490=EDGE_CURVE('',#393,#391,#154,.T.);
#491=EDGE_CURVE('',#394,#392,#155,.T.);
#492=EDGE_CURVE('',#393,#394,#156,.T.);
#493=EDGE_CURVE('',#395,#393,#157,.T.);
#494=EDGE_CURVE('',#396,#394,#158,.T.);
#495=EDGE_CURVE('',#395,#396,#159,.T.);
#496=EDGE_CURVE('',#397,#395,#160,.T.);
#497=EDGE_CURVE('',#398,#396,#161,.T.);
#498=EDGE_CURVE('',#397,#398,#162,.T.);
#499=EDGE_CURVE('',#399,#397,#163,.T.);
#500=EDGE_CURVE('',#400,#398,#164,.T.);
#501=EDGE_CURVE('',#399,#400,#165,.T.);
#502=EDGE_CURVE('',#401,#399,#166,.T.);
#503=EDGE_CURVE('',#402,#400,#167,.T.);
#504=EDGE_CURVE('',#401,#402,#168,.T.);
#505=EDGE_CURVE('',#403,#401,#169,.T.);
#506=EDGE_CURVE('',#404,#402,#170,.T.);
#507=EDGE_CURVE('',#403,#404,#171,.T.);
#508=EDGE_CURVE('',#405,#403,#172,.T.);
#509=EDGE_CURVE('',#406,#404,#173,.T.);
#510=EDGE_CURVE('',#405,#406,#174,.T.);
#511=EDGE_CURVE('',#407,#405,#175,.T.);
#512=EDGE_CURVE('',#408,#406,#176,.T.);
#513=EDGE_CURVE('',#407,#408,#177,.T.);
#514=EDGE_CURVE('',#409,#407,#178,.T.);
#515=EDGE_CURVE('',#410,#408,#179,.T.);
#516=EDGE_CURVE('',#409,#410,#180,.T.);
#517=EDGE_CURVE('',#411,#409,#181,.T.);
#518=EDGE_CURVE('',#412,#410,#182,.T.);
#519=EDGE_CURVE('',#411,#412,#183,.T.);
#520=EDGE_CURVE('',#379,#411,#184,.T.);
#521=EDGE_CURVE('',#380,#412,#185,.T.);
#522=EDGE_CURVE('',#413,#414,#186,.T.);
#523=EDGE_CURVE('',#413,#415,#187,.T.);
#524=EDGE_CURVE('',#416,#415,#188,.T.);
#525=EDGE_CURVE('',#414,#416,#189,.T.);
#526=EDGE_CURVE('',#414,#417,#190,.T.);
#527=EDGE_CURVE('',#418,#416,#191,.T.);
#528=EDGE_CURVE('',#417,#418,#192,.T.);
#529=EDGE_CURVE('',#417,#419,#193,.T.);
#530=EDGE_CURVE('',#420,#418,#194,.T.);
#531=EDGE_CURVE('',#419,#420,#195,.T.);
#532=EDGE_CURVE('',#421,#371,#196,.T.);
#533=EDGE_CURVE('',#422,#421,#197,.T.);
#534=EDGE_CURVE('',#419,#422,#198,.T.);
#535=EDGE_CURVE('',#383,#420,#199,.T.);
#536=EDGE_CURVE('',#422,#423,#200,.T.);
#537=EDGE_CURVE('',#424,#421,#201,.T.);
#538=EDGE_CURVE('',#423,#424,#202,.T.);
#539=EDGE_CURVE('',#423,#425,#203,.T.);
#540=EDGE_CURVE('',#426,#424,#204,.T.);
#541=EDGE_CURVE('',#425,#426,#205,.T.);
#542=EDGE_CURVE('',#425,#427,#206,.T.);
#543=EDGE_CURVE('',#428,#426,#207,.T.);
#544=EDGE_CURVE('',#427,#428,#208,.T.);
#545=EDGE_CURVE('',#427,#429,#209,.T.);
#546=EDGE_CURVE('',#430,#428,#210,.T.);
#547=EDGE_CURVE('',#429,#430,#211,.T.);
#548=EDGE_CURVE('',#429,#431,#212,.T.);
#549=EDGE_CURVE('',#432,#430,#213,.T.);
#550=EDGE_CURVE('',#431,#432,#214,.T.);
#551=EDGE_CURVE('',#431,#433,#215,.T.);
#552=EDGE_CURVE('',#434,#432,#216,.T.);
#553=EDGE_CURVE('',#433,#434,#217,.T.);
#554=EDGE_CURVE('',#433,#435,#218,.T.);
#555=EDGE_CURVE('',#436,#434,#219,.T.);
#556=EDGE_CURVE('',#435,#436,#220,.T.);
#557=EDGE_CURVE('',#435,#437,#221,.T.);
#558=EDGE_CURVE('',#438,#436,#222,.T.);
#559=EDGE_CURVE('',#437,#438,#223,.T.);
#560=EDGE_CURVE('',#437,#439,#224,.T.);
#561=EDGE_CURVE('',#440,#438,#225,.T.);
#562=EDGE_CURVE('',#439,#440,#226,.T.);
#563=EDGE_CURVE('',#439,#441,#227,.T.);
#564=EDGE_CURVE('',#442,#440,#228,.T.);
#565=EDGE_CURVE('',#441,#442,#229,.T.);
#566=EDGE_CURVE('',#441,#443,#230,.T.);
#567=EDGE_CURVE('',#444,#442,#231,.T.);
#568=EDGE_CURVE('',#443,#444,#232,.T.);
#569=EDGE_CURVE('',#443,#413,#233,.T.);
#570=EDGE_CURVE('',#415,#444,#234,.T.);
#571=ORIENTED_EDGE('',*,*,#445,.T.);
#572=ORIENTED_EDGE('',*,*,#446,.T.);
#573=ORIENTED_EDGE('',*,*,#447,.F.);
#574=ORIENTED_EDGE('',*,*,#448,.F.);
#575=ORIENTED_EDGE('',*,*,#449,.T.);
#576=ORIENTED_EDGE('',*,*,#448,.T.);
#577=ORIENTED_EDGE('',*,*,#450,.F.);
#578=ORIENTED_EDGE('',*,*,#451,.F.);
#579=ORIENTED_EDGE('',*,*,#452,.T.);
#580=ORIENTED_EDGE('',*,*,#451,.T.);
#581=ORIENTED_EDGE('',*,*,#453,.F.);
#582=ORIENTED_EDGE('',*,*,#454,.F.);
#583=ORIENTED_EDGE('',*,*,#455,.T.);
#584=ORIENTED_EDGE('',*,*,#454,.T.);
#585=ORIENTED_EDGE('',*,*,#456,.F.);
#586=ORIENTED_EDGE('',*,*,#446,.F.);
#587=ORIENTED_EDGE('',*,*,#456,.T.);
#588=ORIENTED_EDGE('',*,*,#453,.T.);
#589=ORIENTED_EDGE('',*,*,#450,.T.);
#590=ORIENTED_EDGE('',*,*,#447,.T.);
#591=ORIENTED_EDGE('',*,*,#455,.F.);
#592=ORIENTED_EDGE('',*,*,#445,.F.);
#593=ORIENTED_EDGE('',*,*,#449,.F.);
#594=ORIENTED_EDGE('',*,*,#452,.F.);
#595=ORIENTED_EDGE('',*,*,#457,.F.);
#596=ORIENTED_EDGE('',*,*,#458,.F.);
#597=ORIENTED_EDGE('',*,*,#459,.F.);
#598=ORIENTED_EDGE('',*,*,#460,.F.);
#599=ORIENTED_EDGE('',*,*,#457,.T.);
#600=ORIENTED_EDGE('',*,*,#461,.T.);
#601=ORIENTED_EDGE('',*,*,#462,.T.);
#602=ORIENTED_EDGE('',*,*,#463,.T.);
#603=ORIENTED_EDGE('',*,*,#464,.T.);
#604=ORIENTED_EDGE('',*,*,#465,.F.);
#605=ORIENTED_EDGE('',*,*,#466,.F.);
#606=ORIENTED_EDGE('',*,*,#467,.T.);
#607=ORIENTED_EDGE('',*,*,#468,.T.);
#608=ORIENTED_EDGE('',*,*,#469,.F.);
#609=ORIENTED_EDGE('',*,*,#463,.F.);
#610=ORIENTED_EDGE('',*,*,#470,.T.);
#611=ORIENTED_EDGE('',*,*,#471,.F.);
#612=ORIENTED_EDGE('',*,*,#472,.F.);
#613=ORIENTED_EDGE('',*,*,#464,.F.);
#614=ORIENTED_EDGE('',*,*,#472,.T.);
#615=ORIENTED_EDGE('',*,*,#473,.F.);
#616=ORIENTED_EDGE('',*,*,#474,.F.);
#617=ORIENTED_EDGE('',*,*,#460,.T.);
#618=ORIENTED_EDGE('',*,*,#475,.F.);
#619=ORIENTED_EDGE('',*,*,#476,.F.);
#620=ORIENTED_EDGE('',*,*,#461,.F.);
#621=ORIENTED_EDGE('',*,*,#462,.F.);
#622=ORIENTED_EDGE('',*,*,#476,.T.);
#623=ORIENTED_EDGE('',*,*,#477,.F.);
#624=ORIENTED_EDGE('',*,*,#470,.F.);
#625=ORIENTED_EDGE('',*,*,#478,.T.);
#626=ORIENTED_EDGE('',*,*,#466,.T.);
#627=ORIENTED_EDGE('',*,*,#479,.F.);
#628=ORIENTED_EDGE('',*,*,#480,.F.);
#629=ORIENTED_EDGE('',*,*,#481,.T.);
#630=ORIENTED_EDGE('',*,*,#480,.T.);
#631=ORIENTED_EDGE('',*,*,#482,.F.);
#632=ORIENTED_EDGE('',*,*,#483,.F.);
#633=ORIENTED_EDGE('',*,*,#484,.T.);
#634=ORIENTED_EDGE('',*,*,#483,.T.);
#635=ORIENTED_EDGE('',*,*,#485,.F.);
#636=ORIENTED_EDGE('',*,*,#486,.F.);
#637=ORIENTED_EDGE('',*,*,#487,.T.);
#638=ORIENTED_EDGE('',*,*,#486,.T.);
#639=ORIENTED_EDGE('',*,*,#488,.F.);
#640=ORIENTED_EDGE('',*,*,#489,.F.);
#641=ORIENTED_EDGE('',*,*,#490,.T.);
#642=ORIENTED_EDGE('',*,*,#489,.T.);
#643=ORIENTED_EDGE('',*,*,#491,.F.);
#644=ORIENTED_EDGE('',*,*,#492,.F.);
#645=ORIENTED_EDGE('',*,*,#493,.T.);
#646=ORIENTED_EDGE('',*,*,#492,.T.);
#647=ORIENTED_EDGE('',*,*,#494,.F.);
#648=ORIENTED_EDGE('',*,*,#495,.F.);
#649=ORIENTED_EDGE('',*,*,#496,.T.);
#650=ORIENTED_EDGE('',*,*,#495,.T.);
#651=ORIENTED_EDGE('',*,*,#497,.F.);
#652=ORIENTED_EDGE('',*,*,#498,.F.);
#653=ORIENTED_EDGE('',*,*,#499,.T.);
#654=ORIENTED_EDGE('',*,*,#498,.T.);
#655=ORIENTED_EDGE('',*,*,#500,.F.);
#656=ORIENTED_EDGE('',*,*,#501,.F.);
#657=ORIENTED_EDGE('',*,*,#502,.T.);
#658=ORIENTED_EDGE('',*,*,#501,.T.);
#659=ORIENTED_EDGE('',*,*,#503,.F.);
#660=ORIENTED_EDGE('',*,*,#504,.F.);
#661=ORIENTED_EDGE('',*,*,#505,.T.);
#662=ORIENTED_EDGE('',*,*,#504,.T.);
#663=ORIENTED_EDGE('',*,*,#506,.F.);
#664=ORIENTED_EDGE('',*,*,#507,.F.);
#665=ORIENTED_EDGE('',*,*,#508,.T.);
#666=ORIENTED_EDGE('',*,*,#507,.T.);
#667=ORIENTED_EDGE('',*,*,#509,.F.);
#668=ORIENTED_EDGE('',*,*,#510,.F.);
#669=ORIENTED_EDGE('',*,*,#511,.T.);
#670=ORIENTED_EDGE('',*,*,#510,.T.);
#671=ORIENTED_EDGE('',*,*,#512,.F.);
#672=ORIENTED_EDGE('',*,*,#513,.F.);
#673=ORIENTED_EDGE('',*,*,#514,.T.);
#674=ORIENTED_EDGE('',*,*,#513,.T.);
#675=ORIENTED_EDGE('',*,*,#515,.F.);
#676=ORIENTED_EDGE('',*,*,#516,.F.);
#677=ORIENTED_EDGE('',*,*,#517,.T.);
#678=ORIENTED_EDGE('',*,*,#516,.T.);
#679=ORIENTED_EDGE('',*,*,#518,.F.);
#680=ORIENTED_EDGE('',*,*,#519,.F.);
#681=ORIENTED_EDGE('',*,*,#520,.T.);
#682=ORIENTED_EDGE('',*,*,#519,.T.);
#683=ORIENTED_EDGE('',*,*,#521,.F.);
#684=ORIENTED_EDGE('',*,*,#468,.F.);
#685=ORIENTED_EDGE('',*,*,#522,.F.);
#686=ORIENTED_EDGE('',*,*,#523,.T.);
#687=ORIENTED_EDGE('',*,*,#524,.F.);
#688=ORIENTED_EDGE('',*,*,#525,.F.);
#689=ORIENTED_EDGE('',*,*,#526,.F.);
#690=ORIENTED_EDGE('',*,*,#525,.T.);
#691=ORIENTED_EDGE('',*,*,#527,.F.);
#692=ORIENTED_EDGE('',*,*,#528,.F.);
#693=ORIENTED_EDGE('',*,*,#529,.F.);
#694=ORIENTED_EDGE('',*,*,#528,.T.);
#695=ORIENTED_EDGE('',*,*,#530,.F.);
#696=ORIENTED_EDGE('',*,*,#531,.F.);
#697=ORIENTED_EDGE('',*,*,#459,.T.);
#698=ORIENTED_EDGE('',*,*,#532,.F.);
#699=ORIENTED_EDGE('',*,*,#533,.F.);
#700=ORIENTED_EDGE('',*,*,#534,.F.);
#701=ORIENTED_EDGE('',*,*,#531,.T.);
#702=ORIENTED_EDGE('',*,*,#535,.F.);
#703=ORIENTED_EDGE('',*,*,#473,.T.);
#704=ORIENTED_EDGE('',*,*,#471,.T.);
#705=ORIENTED_EDGE('',*,*,#477,.T.);
#706=ORIENTED_EDGE('',*,*,#475,.T.);
#707=ORIENTED_EDGE('',*,*,#536,.F.);
#708=ORIENTED_EDGE('',*,*,#533,.T.);
#709=ORIENTED_EDGE('',*,*,#537,.F.);
#710=ORIENTED_EDGE('',*,*,#538,.F.);
#711=ORIENTED_EDGE('',*,*,#539,.F.);
#712=ORIENTED_EDGE('',*,*,#538,.T.);
#713=ORIENTED_EDGE('',*,*,#540,.F.);
#714=ORIENTED_EDGE('',*,*,#541,.F.);
#715=ORIENTED_EDGE('',*,*,#542,.F.);
#716=ORIENTED_EDGE('',*,*,#541,.T.);
#717=ORIENTED_EDGE('',*,*,#543,.F.);
#718=ORIENTED_EDGE('',*,*,#544,.F.);
#719=ORIENTED_EDGE('',*,*,#545,.F.);
#720=ORIENTED_EDGE('',*,*,#544,.T.);
#721=ORIENTED_EDGE('',*,*,#546,.F.);
#722=ORIENTED_EDGE('',*,*,#547,.F.);
#723=ORIENTED_EDGE('',*,*,#548,.F.);
#724=ORIENTED_EDGE('',*,*,#547,.T.);
#725=ORIENTED_EDGE('',*,*,#549,.F.);
#726=ORIENTED_EDGE('',*,*,#550,.F.);
#727=ORIENTED_EDGE('',*,*,#551,.F.);
#728=ORIENTED_EDGE('',*,*,#550,.T.);
#729=ORIENTED_EDGE('',*,*,#552,.F.);
#730=ORIENTED_EDGE('',*,*,#553,.F.);
#731=ORIENTED_EDGE('',*,*,#554,.F.);
#732=ORIENTED_EDGE('',*,*,#553,.T.);
#733=ORIENTED_EDGE('',*,*,#555,.F.);
#734=ORIENTED_EDGE('',*,*,#556,.F.);
#735=ORIENTED_EDGE('',*,*,#557,.F.);
#736=ORIENTED_EDGE('',*,*,#556,.T.);
#737=ORIENTED_EDGE('',*,*,#558,.F.);
#738=ORIENTED_EDGE('',*,*,#559,.F.);
#739=ORIENTED_EDGE('',*,*,#560,.F.);
#740=ORIENTED_EDGE('',*,*,#559,.T.);
#741=ORIENTED_EDGE('',*,*,#561,.F.);
#742=ORIENTED_EDGE('',*,*,#562,.F.);
#743=ORIENTED_EDGE('',*,*,#563,.F.);
#744=ORIENTED_EDGE('',*,*,#562,.T.);
#745=ORIENTED_EDGE('',*,*,#564,.F.);
#746=ORIENTED_EDGE('',*,*,#565,.F.);
#747=ORIENTED_EDGE('',*,*,#566,.F.);
#748=ORIENTED_EDGE('',*,*,#565,.T.);
#749=ORIENTED_EDGE('',*,*,#567,.F.);
#750=ORIENTED_EDGE('',*,*,#568,.F.);
#751=ORIENTED_EDGE('',*,*,#569,.F.);
#752=ORIENTED_EDGE('',*,*,#568,.T.);
#753=ORIENTED_EDGE('',*,*,#570,.F.);
#754=ORIENTED_EDGE('',*,*,#523,.F.);
#755=ORIENTED_EDGE('',*,*,#458,.T.);
#756=ORIENTED_EDGE('',*,*,#469,.T.);
#757=ORIENTED_EDGE('',*,*,#521,.T.);
#758=ORIENTED_EDGE('',*,*,#518,.T.);
#759=ORIENTED_EDGE('',*,*,#515,.T.);
#760=ORIENTED_EDGE('',*,*,#512,.T.);
#761=ORIENTED_EDGE('',*,*,#509,.T.);
#762=ORIENTED_EDGE('',*,*,#506,.T.);
#763=ORIENTED_EDGE('',*,*,#503,.T.);
#764=ORIENTED_EDGE('',*,*,#500,.T.);
#765=ORIENTED_EDGE('',*,*,#497,.T.);
#766=ORIENTED_EDGE('',*,*,#494,.T.);
#767=ORIENTED_EDGE('',*,*,#491,.T.);
#768=ORIENTED_EDGE('',*,*,#488,.T.);
#769=ORIENTED_EDGE('',*,*,#485,.T.);
#770=ORIENTED_EDGE('',*,*,#482,.T.);
#771=ORIENTED_EDGE('',*,*,#479,.T.);
#772=ORIENTED_EDGE('',*,*,#465,.T.);
#773=ORIENTED_EDGE('',*,*,#474,.T.);
#774=ORIENTED_EDGE('',*,*,#535,.T.);
#775=ORIENTED_EDGE('',*,*,#530,.T.);
#776=ORIENTED_EDGE('',*,*,#527,.T.);
#777=ORIENTED_EDGE('',*,*,#524,.T.);
#778=ORIENTED_EDGE('',*,*,#570,.T.);
#779=ORIENTED_EDGE('',*,*,#567,.T.);
#780=ORIENTED_EDGE('',*,*,#564,.T.);
#781=ORIENTED_EDGE('',*,*,#561,.T.);
#782=ORIENTED_EDGE('',*,*,#558,.T.);
#783=ORIENTED_EDGE('',*,*,#555,.T.);
#784=ORIENTED_EDGE('',*,*,#552,.T.);
#785=ORIENTED_EDGE('',*,*,#549,.T.);
#786=ORIENTED_EDGE('',*,*,#546,.T.);
#787=ORIENTED_EDGE('',*,*,#543,.T.);
#788=ORIENTED_EDGE('',*,*,#540,.T.);
#789=ORIENTED_EDGE('',*,*,#537,.T.);
#790=ORIENTED_EDGE('',*,*,#532,.T.);
#791=ORIENTED_EDGE('',*,*,#569,.T.);
#792=ORIENTED_EDGE('',*,*,#522,.T.);
#793=ORIENTED_EDGE('',*,*,#526,.T.);
#794=ORIENTED_EDGE('',*,*,#529,.T.);
#795=ORIENTED_EDGE('',*,*,#534,.T.);
#796=ORIENTED_EDGE('',*,*,#536,.T.);
#797=ORIENTED_EDGE('',*,*,#539,.T.);
#798=ORIENTED_EDGE('',*,*,#542,.T.);
#799=ORIENTED_EDGE('',*,*,#545,.T.);
#800=ORIENTED_EDGE('',*,*,#548,.T.);
#801=ORIENTED_EDGE('',*,*,#551,.T.);
#802=ORIENTED_EDGE('',*,*,#554,.T.);
#803=ORIENTED_EDGE('',*,*,#557,.T.);
#804=ORIENTED_EDGE('',*,*,#560,.T.);
#805=ORIENTED_EDGE('',*,*,#563,.T.);
#806=ORIENTED_EDGE('',*,*,#566,.T.);
#807=ORIENTED_EDGE('',*,*,#467,.F.);
#808=ORIENTED_EDGE('',*,*,#478,.F.);
#809=ORIENTED_EDGE('',*,*,#481,.F.);
#810=ORIENTED_EDGE('',*,*,#484,.F.);
#811=ORIENTED_EDGE('',*,*,#487,.F.);
#812=ORIENTED_EDGE('',*,*,#490,.F.);
#813=ORIENTED_EDGE('',*,*,#493,.F.);
#814=ORIENTED_EDGE('',*,*,#496,.F.);
#815=ORIENTED_EDGE('',*,*,#499,.F.);
#816=ORIENTED_EDGE('',*,*,#502,.F.);
#817=ORIENTED_EDGE('',*,*,#505,.F.);
#818=ORIENTED_EDGE('',*,*,#508,.F.);
#819=ORIENTED_EDGE('',*,*,#511,.F.);
#820=ORIENTED_EDGE('',*,*,#514,.F.);
#821=ORIENTED_EDGE('',*,*,#517,.F.);
#822=ORIENTED_EDGE('',*,*,#520,.F.);
#823=PLANE('',#928);
#824=PLANE('',#929);
#825=PLANE('',#930);
#826=PLANE('',#931);
#827=PLANE('',#932);
#828=PLANE('',#933);
#829=PLANE('',#934);
#830=PLANE('',#935);
#831=PLANE('',#936);
#832=PLANE('',#937);
#833=PLANE('',#938);
#834=PLANE('',#939);
#835=PLANE('',#940);
#836=PLANE('',#941);
#837=PLANE('',#942);
#838=PLANE('',#943);
#839=PLANE('',#944);
#840=PLANE('',#945);
#841=PLANE('',#946);
#842=PLANE('',#947);
#843=PLANE('',#948);
#844=PLANE('',#949);
#845=PLANE('',#950);
#846=PLANE('',#951);
#847=PLANE('',#952);
#848=PLANE('',#953);
#849=PLANE('',#954);
#850=PLANE('',#955);
#851=PLANE('',#956);
#852=PLANE('',#957);
#853=PLANE('',#958);
#854=PLANE('',#959);
#855=PLANE('',#960);
#856=PLANE('',#961);
#857=PLANE('',#962);
#858=PLANE('',#963);
#859=PLANE('',#964);
#860=PLANE('',#965);
#861=PLANE('',#966);
#862=PLANE('',#967);
#863=PLANE('',#968);
#864=PLANE('',#969);
#865=PLANE('',#970);
#866=PLANE('',#971);
#867=PLANE('',#972);
#868=ADVANCED_FACE('',(#18),#823,.T.);
#869=ADVANCED_FACE('',(#19),#824,.T.);
#870=ADVANCED_FACE('',(#20),#825,.T.);
#871=ADVANCED_FACE('',(#21),#826,.T.);
#872=ADVANCED_FACE('',(#22),#827,.T.);
#873=ADVANCED_FACE('',(#23),#828,.F.);
#874=ADVANCED_FACE('',(#24),#829,.F.);
#875=ADVANCED_FACE('',(#25),#830,.T.);
#876=ADVANCED_FACE('',(#26),#831,.F.);
#877=ADVANCED_FACE('',(#27),#832,.F.);
#878=ADVANCED_FACE('',(#28),#833,.F.);
#879=ADVANCED_FACE('',(#29),#834,.F.);
#880=ADVANCED_FACE('',(#30),#835,.T.);
#881=ADVANCED_FACE('',(#31),#836,.T.);
#882=ADVANCED_FACE('',(#32),#837,.T.);
#883=ADVANCED_FACE('',(#33),#838,.T.);
#884=ADVANCED_FACE('',(#34),#839,.T.);
#885=ADVANCED_FACE('',(#35),#840,.T.);
#886=ADVANCED_FACE('',(#36),#841,.T.);
#887=ADVANCED_FACE('',(#37),#842,.T.);
#888=ADVANCED_FACE('',(#38),#843,.T.);
#889=ADVANCED_FACE('',(#39),#844,.T.);
#890=ADVANCED_FACE('',(#40),#845,.T.);
#891=ADVANCED_FACE('',(#41),#846,.T.);
#892=ADVANCED_FACE('',(#42),#847,.T.);
#893=ADVANCED_FACE('',(#43),#848,.T.);
#894=ADVANCED_FACE('',(#44),#849,.T.);
#895=ADVANCED_FACE('',(#45),#850,.T.);
#896=ADVANCED_FACE('',(#46),#851,.T.);
#897=ADVANCED_FACE('',(#47),#852,.T.);
#898=ADVANCED_FACE('',(#48),#853,.T.);
#899=ADVANCED_FACE('',(#49),#854,.T.);
#900=ADVANCED_FACE('',(#50),#855,.T.);
#901=ADVANCED_FACE('',(#51),#856,.T.);
#902=ADVANCED_FACE('',(#52),#857,.T.);
#903=ADVANCED_FACE('',(#53),#858,.T.);
#904=ADVANCED_FACE('',(#54),#859,.T.);
#905=ADVANCED_FACE('',(#55),#860,.T.);
#906=ADVANCED_FACE('',(#56),#861,.T.);
#907=ADVANCED_FACE('',(#57),#862,.T.);
#908=ADVANCED_FACE('',(#58),#863,.T.);
#909=ADVANCED_FACE('',(#59),#864,.T.);
#910=ADVANCED_FACE('',(#60),#865,.T.);
#911=ADVANCED_FACE('',(#61),#866,.T.);
#912=ADVANCED_FACE('',(#62,#13),#867,.F.);
#913=CLOSED_SHELL('',(#868,#869,#870,#871,#872,#873));
#914=CLOSED_SHELL('',(#874,#875,#876,#877,#878,#879,#880,#881,#882,#883,
#884,#885,#886,#887,#888,#889,#890,#891,#892,#893,#894,#895,#896,#897,#898,
#899,#900,#901,#902,#903,#904,#905,#906,#907,#908,#909,#910,#911,#912));
#915=DERIVED_UNIT_ELEMENT(#917,1.);
#916=DERIVED_UNIT_ELEMENT(#1452,-3.);
#917=(
MASS_UNIT()
NAMED_UNIT(*)
SI_UNIT(.KILO.,.GRAM.)
);
#918=DERIVED_UNIT((#915,#916));
#919=MEASURE_REPRESENTATION_ITEM('density measure',
POSITIVE_RATIO_MEASURE(7850.),#918);
#920=PROPERTY_DEFINITION_REPRESENTATION(#925,#922);
#921=PROPERTY_DEFINITION_REPRESENTATION(#926,#923);
#922=REPRESENTATION('material name',(#924),#1449);
#923=REPRESENTATION('density',(#919),#1449);
#924=DESCRIPTIVE_REPRESENTATION_ITEM('Steel','Steel');
#925=PROPERTY_DEFINITION('material property','material name',#1459);
#926=PROPERTY_DEFINITION('material property','density of part',#1459);
#927=AXIS2_PLACEMENT_3D('',#1191,#973,#974);
#928=AXIS2_PLACEMENT_3D('',#1192,#975,#976);
#929=AXIS2_PLACEMENT_3D('',#1201,#981,#982);
#930=AXIS2_PLACEMENT_3D('',#1207,#986,#987);
#931=AXIS2_PLACEMENT_3D('',#1213,#991,#992);
#932=AXIS2_PLACEMENT_3D('',#1216,#995,#996);
#933=AXIS2_PLACEMENT_3D('',#1217,#997,#998);
#934=AXIS2_PLACEMENT_3D('',#1218,#999,#1000);
#935=AXIS2_PLACEMENT_3D('',#1227,#1005,#1006);
#936=AXIS2_PLACEMENT_3D('',#1245,#1016,#1017);
#937=AXIS2_PLACEMENT_3D('',#1251,#1021,#1022);
#938=AXIS2_PLACEMENT_3D('',#1255,#1025,#1026);
#939=AXIS2_PLACEMENT_3D('',#1259,#1029,#1030);
#940=AXIS2_PLACEMENT_3D('',#1261,#1032,#1033);
#941=AXIS2_PLACEMENT_3D('',#1267,#1037,#1038);
#942=AXIS2_PLACEMENT_3D('',#1273,#1042,#1043);
#943=AXIS2_PLACEMENT_3D('',#1279,#1047,#1048);
#944=AXIS2_PLACEMENT_3D('',#1285,#1052,#1053);
#945=AXIS2_PLACEMENT_3D('',#1291,#1057,#1058);
#946=AXIS2_PLACEMENT_3D('',#1297,#1062,#1063);
#947=AXIS2_PLACEMENT_3D('',#1303,#1067,#1068);
#948=AXIS2_PLACEMENT_3D('',#1309,#1072,#1073);
#949=AXIS2_PLACEMENT_3D('',#1315,#1077,#1078);
#950=AXIS2_PLACEMENT_3D('',#1321,#1082,#1083);
#951=AXIS2_PLACEMENT_3D('',#1327,#1087,#1088);
#952=AXIS2_PLACEMENT_3D('',#1333,#1092,#1093);
#953=AXIS2_PLACEMENT_3D('',#1339,#1097,#1098);
#954=AXIS2_PLACEMENT_3D('',#1345,#1102,#1103);
#955=AXIS2_PLACEMENT_3D('',#1348,#1106,#1107);
#956=AXIS2_PLACEMENT_3D('',#1357,#1112,#1113);
#957=AXIS2_PLACEMENT_3D('',#1363,#1117,#1118);
#958=AXIS2_PLACEMENT_3D('',#1369,#1122,#1123);
#959=AXIS2_PLACEMENT_3D('',#1376,#1128,#1129);
#960=AXIS2_PLACEMENT_3D('',#1382,#1133,#1134);
#961=AXIS2_PLACEMENT_3D('',#1388,#1138,#1139);
#962=AXIS2_PLACEMENT_3D('',#1394,#1143,#1144);
#963=AXIS2_PLACEMENT_3D('',#1400,#1148,#1149);
#964=AXIS2_PLACEMENT_3D('',#1406,#1153,#1154);
#965=AXIS2_PLACEMENT_3D('',#1412,#1158,#1159);
#966=AXIS2_PLACEMENT_3D('',#1418,#1163,#1164);
#967=AXIS2_PLACEMENT_3D('',#1424,#1168,#1169);
#968=AXIS2_PLACEMENT_3D('',#1430,#1173,#1174);
#969=AXIS2_PLACEMENT_3D('',#1436,#1178,#1179);
#970=AXIS2_PLACEMENT_3D('',#1442,#1183,#1184);
#971=AXIS2_PLACEMENT_3D('',#1445,#1187,#1188);
#972=AXIS2_PLACEMENT_3D('',#1446,#1189,#1190);
#973=DIRECTION('axis',(0.,0.,1.));
#974=DIRECTION('refdir',(1.,0.,0.));
#975=DIRECTION('center_axis',(1.,0.,0.));
#976=DIRECTION('ref_axis',(0.,1.,0.));
#977=DIRECTION('',(0.,1.,0.));
#978=DIRECTION('',(0.,0.,1.));
#979=DIRECTION('',(0.,1.,0.));
#980=DIRECTION('',(0.,0.,1.));
#981=DIRECTION('center_axis',(0.,-1.,0.));
#982=DIRECTION('ref_axis',(1.,0.,0.));
#983=DIRECTION('',(1.,0.,0.));
#984=DIRECTION('',(1.,0.,0.));
#985=DIRECTION('',(0.,0.,1.));
#986=DIRECTION('center_axis',(-1.,0.,0.));
#987=DIRECTION('ref_axis',(0.,-1.,0.));
#988=DIRECTION('',(0.,-1.,0.));
#989=DIRECTION('',(0.,-1.,0.));
#990=DIRECTION('',(0.,0.,1.));
#991=DIRECTION('center_axis',(0.,1.,0.));
#992=DIRECTION('ref_axis',(-1.,0.,0.));
#993=DIRECTION('',(-1.,0.,0.));
#994=DIRECTION('',(-1.,0.,0.));
#995=DIRECTION('center_axis',(0.,0.,1.));
#996=DIRECTION('ref_axis',(1.,0.,0.));
#997=DIRECTION('center_axis',(0.,0.,1.));
#998=DIRECTION('ref_axis',(1.,0.,0.));
#999=DIRECTION('center_axis',(1.,0.,0.));
#1000=DIRECTION('ref_axis',(0.,0.,-1.));
#1001=DIRECTION('',(0.,0.,-1.));
#1002=DIRECTION('',(0.,-1.,0.));
#1003=DIRECTION('',(0.,0.,1.));
#1004=DIRECTION('',(0.,1.,0.));
#1005=DIRECTION('center_axis',(0.,-1.,0.));
#1006=DIRECTION('ref_axis',(1.,0.,0.));
#1007=DIRECTION('',(1.,0.,0.));
#1008=DIRECTION('',(6.62862271952515E-31,0.,-1.));
#1009=DIRECTION('',(-1.,0.,0.));
#1010=DIRECTION('',(0.,0.,1.));
#1011=DIRECTION('',(1.,0.,0.));
#1012=DIRECTION('',(0.,0.,1.));
#1013=DIRECTION('',(1.,0.,0.));
#1014=DIRECTION('',(0.,0.,1.));
#1015=DIRECTION('',(1.,0.,0.));
#1016=DIRECTION('center_axis',(0.,0.,-1.));
#1017=DIRECTION('ref_axis',(-1.,0.,0.));
#1018=DIRECTION('',(6.7168492989822E-16,1.,0.));
#1019=DIRECTION('',(1.,0.,0.));
#1020=DIRECTION('',(6.7168492989822E-16,1.,0.));
#1021=DIRECTION('center_axis',(-1.,6.7168492989822E-16,0.));
#1022=DIRECTION('ref_axis',(0.,0.,1.));
#1023=DIRECTION('',(0.,0.,-1.));
#1024=DIRECTION('',(0.,1.,0.));
#1025=DIRECTION('center_axis',(0.,0.,1.));
#1026=DIRECTION('ref_axis',(1.,0.,0.));
#1027=DIRECTION('',(-1.,0.,0.));
#1028=DIRECTION('',(6.7168492989822E-16,1.,0.));
#1029=DIRECTION('center_axis',(1.,-6.7168492989822E-16,6.62862271952515E-31));
#1030=DIRECTION('ref_axis',(0.,-9.86864886268862E-16,-1.));
#1031=DIRECTION('',(-6.62862271952515E-31,0.,1.));
#1032=DIRECTION('center_axis',(0.195090852694176,-0.980785174844654,0.));
#1033=DIRECTION('ref_axis',(0.980785174844655,0.195090852694176,0.));
#1034=DIRECTION('',(0.980785174844655,0.195090852694176,0.));
#1035=DIRECTION('',(0.980785174844655,0.195090852694176,0.));
#1036=DIRECTION('',(0.,0.,1.));
#1037=DIRECTION('center_axis',(0.70710678118678,-0.707106781186315,0.));
#1038=DIRECTION('ref_axis',(0.707106781186315,0.70710678118678,0.));
#1039=DIRECTION('',(0.707106781186315,0.70710678118678,0.));
#1040=DIRECTION('',(0.707106781186315,0.70710678118678,0.));
#1041=DIRECTION('',(0.,0.,1.));
#1042=DIRECTION('center_axis',(0.980785174844585,-0.195090852694524,0.));
#1043=DIRECTION('ref_axis',(0.195090852694524,0.980785174844585,0.));
#1044=DIRECTION('',(0.195090852694524,0.980785174844585,0.));
#1045=DIRECTION('',(0.195090852694524,0.980785174844585,0.));
#1046=DIRECTION('',(0.,0.,1.));
#1047=DIRECTION('center_axis',(1.,0.,0.));
#1048=DIRECTION('ref_axis',(0.,1.,0.));
#1049=DIRECTION('',(0.,1.,0.));
#1050=DIRECTION('',(0.,1.,0.));
#1051=DIRECTION('',(0.,0.,1.));
#1052=DIRECTION('center_axis',(0.980785174844654,0.195090852694176,0.));
#1053=DIRECTION('ref_axis',(-0.195090852694176,0.980785174844655,0.));
#1054=DIRECTION('',(-0.195090852694176,0.980785174844655,0.));
#1055=DIRECTION('',(-0.195090852694176,0.980785174844655,0.));
#1056=DIRECTION('',(0.,0.,1.));
#1057=DIRECTION('center_axis',(0.707106781185619,0.707106781187476,0.));
#1058=DIRECTION('ref_axis',(-0.707106781187476,0.707106781185619,0.));
#1059=DIRECTION('',(-0.707106781187476,0.707106781185619,0.));
#1060=DIRECTION('',(-0.707106781187476,0.707106781185619,0.));
#1061=DIRECTION('',(0.,0.,1.));
#1062=DIRECTION('center_axis',(0.195090852697679,0.980785174843958,0.));
#1063=DIRECTION('ref_axis',(-0.980785174843958,0.195090852697679,0.));
#1064=DIRECTION('',(-0.980785174843958,0.195090852697679,0.));
#1065=DIRECTION('',(-0.980785174843958,0.195090852697679,0.));
#1066=DIRECTION('',(0.,0.,1.));
#1067=DIRECTION('center_axis',(0.,1.,0.));
#1068=DIRECTION('ref_axis',(-1.,0.,0.));
#1069=DIRECTION('',(-1.,0.,0.));
#1070=DIRECTION('',(-1.,0.,0.));
#1071=DIRECTION('',(0.,0.,1.));
#1072=DIRECTION('center_axis',(-0.195090852697331,0.980785174844027,0.));
#1073=DIRECTION('ref_axis',(-0.980785174844027,-0.195090852697331,0.));
#1074=DIRECTION('',(-0.980785174844027,-0.195090852697331,0.));
#1075=DIRECTION('',(-0.980785174844027,-0.195090852697331,0.));
#1076=DIRECTION('',(0.,0.,1.));
#1077=DIRECTION('center_axis',(-0.707106781187012,0.707106781186083,0.));
#1078=DIRECTION('ref_axis',(-0.707106781186083,-0.707106781187012,0.));
#1079=DIRECTION('',(-0.707106781186083,-0.707106781187012,0.));
#1080=DIRECTION('',(-0.707106781186083,-0.707106781187012,0.));
#1081=DIRECTION('',(0.,0.,1.));
#1082=DIRECTION('center_axis',(-0.980785174843958,0.195090852697679,0.));
#1083=DIRECTION('ref_axis',(-0.195090852697679,-0.980785174843958,0.));
#1084=DIRECTION('',(-0.195090852697679,-0.980785174843958,0.));
#1085=DIRECTION('',(-0.195090852697679,-0.980785174843958,0.));
#1086=DIRECTION('',(0.,0.,1.));
#1087=DIRECTION('center_axis',(-1.,0.,0.));
#1088=DIRECTION('ref_axis',(0.,-1.,0.));
#1089=DIRECTION('',(0.,-1.,0.));
#1090=DIRECTION('',(0.,-1.,0.));
#1091=DIRECTION('',(0.,0.,1.));
#1092=DIRECTION('center_axis',(-0.980785174843888,-0.195090852698028,0.));
#1093=DIRECTION('ref_axis',(0.195090852698028,-0.980785174843888,0.));
#1094=DIRECTION('',(0.195090852698028,-0.980785174843888,0.));
#1095=DIRECTION('',(0.195090852698028,-0.980785174843888,0.));
#1096=DIRECTION('',(0.,0.,1.));
#1097=DIRECTION('center_axis',(-0.707106781188172,-0.707106781184923,0.));
#1098=DIRECTION('ref_axis',(0.707106781184923,-0.707106781188172,0.));
#1099=DIRECTION('',(0.707106781184923,-0.707106781188172,0.));
#1100=DIRECTION('',(0.707106781184923,-0.707106781188172,0.));
#1101=DIRECTION('',(0.,0.,1.));
#1102=DIRECTION('center_axis',(-0.195090852693827,-0.980785174844724,0.));
#1103=DIRECTION('ref_axis',(0.980785174844724,-0.195090852693827,0.));
#1104=DIRECTION('',(0.980785174844724,-0.195090852693827,0.));
#1105=DIRECTION('',(0.980785174844724,-0.195090852693827,0.));
#1106=DIRECTION('center_axis',(-0.980785174844585,0.195090852694525,0.));
#1107=DIRECTION('ref_axis',(-0.195090852694525,-0.980785174844585,0.));
#1108=DIRECTION('',(0.195090852694525,0.980785174844585,0.));
#1109=DIRECTION('',(0.,0.,1.));
#1110=DIRECTION('',(-0.195090852694525,-0.980785174844585,0.));
#1111=DIRECTION('',(0.,0.,1.));
#1112=DIRECTION('center_axis',(-0.70710678118678,0.707106781186316,0.));
#1113=DIRECTION('ref_axis',(-0.707106781186315,-0.707106781186779,0.));
#1114=DIRECTION('',(0.707106781186315,0.707106781186779,0.));
#1115=DIRECTION('',(-0.707106781186315,-0.707106781186779,0.));
#1116=DIRECTION('',(0.,0.,1.));
#1117=DIRECTION('center_axis',(-0.195090852694175,0.980785174844655,0.));
#1118=DIRECTION('ref_axis',(-0.980785174844655,-0.195090852694175,0.));
#1119=DIRECTION('',(0.980785174844655,0.195090852694175,0.));
#1120=DIRECTION('',(-0.980785174844655,-0.195090852694175,0.));
#1121=DIRECTION('',(0.,0.,1.));
#1122=DIRECTION('center_axis',(0.,1.,0.));
#1123=DIRECTION('ref_axis',(-1.,0.,0.));
#1124=DIRECTION('',(-1.,0.,0.));
#1125=DIRECTION('',(0.,0.,1.));
#1126=DIRECTION('',(1.,0.,0.));
#1127=DIRECTION('',(-1.,0.,0.));
#1128=DIRECTION('center_axis',(0.195090852693826,0.980785174844724,0.));
#1129=DIRECTION('ref_axis',(-0.980785174844724,0.195090852693826,0.));
#1130=DIRECTION('',(0.980785174844724,-0.195090852693826,0.));
#1131=DIRECTION('',(-0.980785174844724,0.195090852693826,0.));
#1132=DIRECTION('',(0.,0.,1.));
#1133=DIRECTION('center_axis',(0.707106781188173,0.707106781184923,0.));
#1134=DIRECTION('ref_axis',(-0.707106781184923,0.707106781188173,0.));
#1135=DIRECTION('',(0.707106781184923,-0.707106781188173,0.));
#1136=DIRECTION('',(-0.707106781184923,0.707106781188173,0.));
#1137=DIRECTION('',(0.,0.,1.));
#1138=DIRECTION('center_axis',(0.980785174843888,0.195090852698029,0.));
#1139=DIRECTION('ref_axis',(-0.195090852698029,0.980785174843888,0.));
#1140=DIRECTION('',(0.195090852698029,-0.980785174843888,0.));
#1141=DIRECTION('',(-0.195090852698029,0.980785174843888,0.));
#1142=DIRECTION('',(0.,0.,1.));
#1143=DIRECTION('center_axis',(1.,0.,0.));
#1144=DIRECTION('ref_axis',(0.,1.,0.));
#1145=DIRECTION('',(0.,-1.,0.));
#1146=DIRECTION('',(0.,1.,0.));
#1147=DIRECTION('',(0.,0.,1.));
#1148=DIRECTION('center_axis',(0.980785174843958,-0.195090852697678,0.));
#1149=DIRECTION('ref_axis',(0.195090852697678,0.980785174843958,0.));
#1150=DIRECTION('',(-0.195090852697678,-0.980785174843958,0.));
#1151=DIRECTION('',(0.195090852697678,0.980785174843958,0.));
#1152=DIRECTION('',(0.,0.,1.));
#1153=DIRECTION('center_axis',(0.707106781187013,-0.707106781186082,0.));
#1154=DIRECTION('ref_axis',(0.707106781186082,0.707106781187013,0.));
#1155=DIRECTION('',(-0.707106781186082,-0.707106781187013,0.));
#1156=DIRECTION('',(0.707106781186082,0.707106781187013,0.));
#1157=DIRECTION('',(0.,0.,1.));
#1158=DIRECTION('center_axis',(0.19509085269733,-0.980785174844027,0.));
#1159=DIRECTION('ref_axis',(0.980785174844027,0.19509085269733,0.));
#1160=DIRECTION('',(-0.980785174844027,-0.19509085269733,0.));
#1161=DIRECTION('',(0.980785174844027,0.19509085269733,0.));
#1162=DIRECTION('',(0.,0.,1.));
#1163=DIRECTION('center_axis',(0.,-1.,0.));
#1164=DIRECTION('ref_axis',(1.,0.,0.));
#1165=DIRECTION('',(-1.,0.,0.));
#1166=DIRECTION('',(1.,0.,0.));
#1167=DIRECTION('',(0.,0.,1.));
#1168=DIRECTION('center_axis',(-0.195090852697679,-0.980785174843958,0.));
#1169=DIRECTION('ref_axis',(0.980785174843958,-0.195090852697679,0.));
#1170=DIRECTION('',(-0.980785174843958,0.195090852697679,0.));
#1171=DIRECTION('',(0.980785174843958,-0.195090852697679,0.));
#1172=DIRECTION('',(0.,0.,1.));
#1173=DIRECTION('center_axis',(-0.707106781185619,-0.707106781187476,0.));
#1174=DIRECTION('ref_axis',(0.707106781187476,-0.707106781185619,0.));
#1175=DIRECTION('',(-0.707106781187476,0.707106781185619,0.));
#1176=DIRECTION('',(0.707106781187476,-0.707106781185619,0.));
#1177=DIRECTION('',(0.,0.,1.));
#1178=DIRECTION('center_axis',(-0.980785174844655,-0.195090852694174,0.));
#1179=DIRECTION('ref_axis',(0.195090852694174,-0.980785174844655,0.));
#1180=DIRECTION('',(-0.195090852694174,0.980785174844655,0.));
#1181=DIRECTION('',(0.195090852694174,-0.980785174844655,0.));
#1182=DIRECTION('',(0.,0.,1.));
#1183=DIRECTION('center_axis',(-1.,0.,0.));
#1184=DIRECTION('ref_axis',(0.,-1.,0.));
#1185=DIRECTION('',(0.,1.,0.));
#1186=DIRECTION('',(0.,-1.,0.));
#1187=DIRECTION('center_axis',(0.,0.,1.));
#1188=DIRECTION('ref_axis',(1.,0.,0.));
#1189=DIRECTION('center_axis',(0.,0.,1.));
#1190=DIRECTION('ref_axis',(1.,0.,0.));
#1191=CARTESIAN_POINT('',(0.,0.,0.));
#1192=CARTESIAN_POINT('Origin',(34.475,-48.975,3.));
#1193=CARTESIAN_POINT('',(34.475,-48.975,3.));
#1194=CARTESIAN_POINT('',(34.475,49.475,3.));
#1195=CARTESIAN_POINT('',(34.475,-48.975,3.));
#1196=CARTESIAN_POINT('',(34.475,49.475,6.));
#1197=CARTESIAN_POINT('',(34.475,49.475,3.));
#1198=CARTESIAN_POINT('',(34.475,-48.975,6.));
#1199=CARTESIAN_POINT('',(34.475,-48.975,6.));
#1200=CARTESIAN_POINT('',(34.475,-48.975,3.));
#1201=CARTESIAN_POINT('Origin',(-36.475,-48.975,3.));
#1202=CARTESIAN_POINT('',(-36.475,-48.975,3.));
#1203=CARTESIAN_POINT('',(-36.475,-48.975,3.));
#1204=CARTESIAN_POINT('',(-36.475,-48.975,6.));
#1205=CARTESIAN_POINT('',(-36.475,-48.975,6.));
#1206=CARTESIAN_POINT('',(-36.475,-48.975,3.));
#1207=CARTESIAN_POINT('Origin',(-36.475,49.475,3.));
#1208=CARTESIAN_POINT('',(-36.475,49.475,3.));
#1209=CARTESIAN_POINT('',(-36.475,49.475,3.));
#1210=CARTESIAN_POINT('',(-36.475,49.475,6.));
#1211=CARTESIAN_POINT('',(-36.475,49.475,6.));
#1212=CARTESIAN_POINT('',(-36.475,49.475,3.));
#1213=CARTESIAN_POINT('Origin',(34.475,49.475,3.));
#1214=CARTESIAN_POINT('',(34.475,49.475,3.));
#1215=CARTESIAN_POINT('',(34.475,49.475,6.));
#1216=CARTESIAN_POINT('Origin',(-0.999999999999988,0.249999999999995,6.));
#1217=CARTESIAN_POINT('Origin',(-0.999999999999988,0.249999999999995,3.));
#1218=CARTESIAN_POINT('Origin',(1.20453452050523,49.475,16.0000002235174));
#1219=CARTESIAN_POINT('',(1.20453452050523,49.525,16.0000002235174));
#1220=CARTESIAN_POINT('',(1.20453452050523,49.525,15.0000002235174));
#1221=CARTESIAN_POINT('',(1.20453452050524,49.525,9.50000011175871));
#1222=CARTESIAN_POINT('',(1.20453452050523,54.525,16.0000002235174));
#1223=CARTESIAN_POINT('',(1.20453452050523,24.8625,16.));
#1224=CARTESIAN_POINT('',(1.20453452050523,54.525,15.0000002235174));
#1225=CARTESIAN_POINT('',(1.20453452050524,54.525,9.50000011175871));
#1226=CARTESIAN_POINT('',(1.20453452050523,49.475,15.0000002235174));
#1227=CARTESIAN_POINT('Origin',(-36.5,49.525,3.));
#1228=CARTESIAN_POINT('',(1.20656571283583,49.525,15.0000002235174));
#1229=CARTESIAN_POINT('',(-24.250000089407,49.525,15.0000002235174));
#1230=CARTESIAN_POINT('',(1.20656571283583,49.525,6.));
#1231=CARTESIAN_POINT('',(1.20656571283583,49.525,9.00000011175871));
#1232=CARTESIAN_POINT('',(-12.0000001788139,49.525,6.));
#1233=CARTESIAN_POINT('',(-17.6467171435821,49.525,6.));
#1234=CARTESIAN_POINT('',(-12.0000001788139,49.525,16.0000002235174));
#1235=CARTESIAN_POINT('',(-12.0000001788139,49.525,9.00000011175871));
#1236=CARTESIAN_POINT('',(-36.5,49.525,16.));
#1237=CARTESIAN_POINT('',(-36.5,49.525,16.));
#1238=CARTESIAN_POINT('',(-36.5,49.525,3.));
#1239=CARTESIAN_POINT('',(-36.5,49.525,3.));
#1240=CARTESIAN_POINT('',(34.5,49.525,3.));
#1241=CARTESIAN_POINT('',(-36.5,49.525,3.));
#1242=CARTESIAN_POINT('',(34.5,49.525,16.));
#1243=CARTESIAN_POINT('',(34.5,49.525,3.));
#1244=CARTESIAN_POINT('',(-36.5,49.525,16.));
#1245=CARTESIAN_POINT('Origin',(1.20656571283583,49.475,6.));
#1246=CARTESIAN_POINT('',(1.20656571283584,54.525,6.));
#1247=CARTESIAN_POINT('',(1.20656571283583,49.475,6.));
#1248=CARTESIAN_POINT('',(-12.0000001788139,54.525,6.));
#1249=CARTESIAN_POINT('',(18.0995120477147,54.525,6.));
#1250=CARTESIAN_POINT('',(-12.0000001788139,49.475,6.));
#1251=CARTESIAN_POINT('Origin',(-12.0000001788139,49.475,6.));
#1252=CARTESIAN_POINT('',(-12.0000001788139,54.525,16.0000002235174));
#1253=CARTESIAN_POINT('',(-12.0000001788139,54.525,9.00000011175871));
#1254=CARTESIAN_POINT('',(-12.0000001788139,24.8625,16.));
#1255=CARTESIAN_POINT('Origin',(-12.0000001788139,49.475,15.0000002235174));
#1256=CARTESIAN_POINT('',(1.20656571283584,54.525,15.0000002235174));
#1257=CARTESIAN_POINT('',(11.4962291018898,54.525,15.0000002235174));
#1258=CARTESIAN_POINT('',(1.20656571283583,49.475,15.0000002235174));
#1259=CARTESIAN_POINT('Origin',(1.20656571283583,49.475,15.0000002235174));
#1260=CARTESIAN_POINT('',(1.20656571283584,54.525,9.00000011175871));
#1261=CARTESIAN_POINT('Origin',(-36.509567,49.523097,3.));
#1262=CARTESIAN_POINT('',(-36.509567,49.523097,3.));
#1263=CARTESIAN_POINT('',(-36.509567,49.523097,3.));
#1264=CARTESIAN_POINT('',(-36.509567,49.523097,16.));
#1265=CARTESIAN_POINT('',(-36.509567,49.523097,16.));
#1266=CARTESIAN_POINT('',(-36.509567,49.523097,3.));
#1267=CARTESIAN_POINT('Origin',(-36.523097,49.509567,3.));
#1268=CARTESIAN_POINT('',(-36.523097,49.509567,3.));
#1269=CARTESIAN_POINT('',(-36.523097,49.509567,3.));
#1270=CARTESIAN_POINT('',(-36.523097,49.509567,16.));
#1271=CARTESIAN_POINT('',(-36.523097,49.509567,16.));
#1272=CARTESIAN_POINT('',(-36.523097,49.509567,3.));
#1273=CARTESIAN_POINT('Origin',(-36.525,49.5,3.));
#1274=CARTESIAN_POINT('',(-36.525,49.5,3.));
#1275=CARTESIAN_POINT('',(-36.525,49.5,3.));
#1276=CARTESIAN_POINT('',(-36.525,49.5,16.));
#1277=CARTESIAN_POINT('',(-36.525,49.5,16.));
#1278=CARTESIAN_POINT('',(-36.525,49.5,3.));
#1279=CARTESIAN_POINT('Origin',(-36.525,-49.,3.));
#1280=CARTESIAN_POINT('',(-36.525,-49.,3.));
#1281=CARTESIAN_POINT('',(-36.525,-49.,3.));
#1282=CARTESIAN_POINT('',(-36.525,-49.,16.));
#1283=CARTESIAN_POINT('',(-36.525,-49.,16.));
#1284=CARTESIAN_POINT('',(-36.525,-49.,3.));
#1285=CARTESIAN_POINT('Origin',(-36.523097,-49.009567,3.));
#1286=CARTESIAN_POINT('',(-36.523097,-49.009567,3.));
#1287=CARTESIAN_POINT('',(-36.523097,-49.009567,3.));
#1288=CARTESIAN_POINT('',(-36.523097,-49.009567,16.));
#1289=CARTESIAN_POINT('',(-36.523097,-49.009567,16.));
#1290=CARTESIAN_POINT('',(-36.523097,-49.009567,3.));
#1291=CARTESIAN_POINT('Origin',(-36.509567,-49.023097,3.));
#1292=CARTESIAN_POINT('',(-36.509567,-49.023097,3.));
#1293=CARTESIAN_POINT('',(-36.509567,-49.023097,3.));
#1294=CARTESIAN_POINT('',(-36.509567,-49.023097,16.));
#1295=CARTESIAN_POINT('',(-36.509567,-49.023097,16.));
#1296=CARTESIAN_POINT('',(-36.509567,-49.023097,3.));
#1297=CARTESIAN_POINT('Origin',(-36.5,-49.025,3.));
#1298=CARTESIAN_POINT('',(-36.5,-49.025,3.));
#1299=CARTESIAN_POINT('',(-36.5,-49.025,3.));
#1300=CARTESIAN_POINT('',(-36.5,-49.025,16.));
#1301=CARTESIAN_POINT('',(-36.5,-49.025,16.));
#1302=CARTESIAN_POINT('',(-36.5,-49.025,3.));
#1303=CARTESIAN_POINT('Origin',(34.5,-49.025,3.));
#1304=CARTESIAN_POINT('',(34.5,-49.025,3.));
#1305=CARTESIAN_POINT('',(34.5,-49.025,3.));
#1306=CARTESIAN_POINT('',(34.5,-49.025,16.));
#1307=CARTESIAN_POINT('',(34.5,-49.025,16.));
#1308=CARTESIAN_POINT('',(34.5,-49.025,3.));
#1309=CARTESIAN_POINT('Origin',(34.509567,-49.023097,3.));
#1310=CARTESIAN_POINT('',(34.509567,-49.023097,3.));
#1311=CARTESIAN_POINT('',(34.509567,-49.023097,3.));
#1312=CARTESIAN_POINT('',(34.509567,-49.023097,16.));
#1313=CARTESIAN_POINT('',(34.509567,-49.023097,16.));
#1314=CARTESIAN_POINT('',(34.509567,-49.023097,3.));
#1315=CARTESIAN_POINT('Origin',(34.523097,-49.009567,3.));
#1316=CARTESIAN_POINT('',(34.523097,-49.009567,3.));
#1317=CARTESIAN_POINT('',(34.523097,-49.009567,3.));
#1318=CARTESIAN_POINT('',(34.523097,-49.009567,16.));
#1319=CARTESIAN_POINT('',(34.523097,-49.009567,16.));
#1320=CARTESIAN_POINT('',(34.523097,-49.009567,3.));
#1321=CARTESIAN_POINT('Origin',(34.525,-49.,3.));
#1322=CARTESIAN_POINT('',(34.525,-49.,3.));
#1323=CARTESIAN_POINT('',(34.525,-49.,3.));
#1324=CARTESIAN_POINT('',(34.525,-49.,16.));
#1325=CARTESIAN_POINT('',(34.525,-49.,16.));
#1326=CARTESIAN_POINT('',(34.525,-49.,3.));
#1327=CARTESIAN_POINT('Origin',(34.525,49.5,3.));
#1328=CARTESIAN_POINT('',(34.525,49.5,3.));
#1329=CARTESIAN_POINT('',(34.525,49.5,3.));
#1330=CARTESIAN_POINT('',(34.525,49.5,16.));
#1331=CARTESIAN_POINT('',(34.525,49.5,16.));
#1332=CARTESIAN_POINT('',(34.525,49.5,3.));
#1333=CARTESIAN_POINT('Origin',(34.523097,49.509567,3.));
#1334=CARTESIAN_POINT('',(34.523097,49.509567,3.));
#1335=CARTESIAN_POINT('',(34.523097,49.509567,3.));
#1336=CARTESIAN_POINT('',(34.523097,49.509567,16.));
#1337=CARTESIAN_POINT('',(34.523097,49.509567,16.));
#1338=CARTESIAN_POINT('',(34.523097,49.509567,3.));
#1339=CARTESIAN_POINT('Origin',(34.509567,49.523097,3.));
#1340=CARTESIAN_POINT('',(34.509567,49.523097,3.));
#1341=CARTESIAN_POINT('',(34.509567,49.523097,3.));
#1342=CARTESIAN_POINT('',(34.509567,49.523097,16.));
#1343=CARTESIAN_POINT('',(34.509567,49.523097,16.));
#1344=CARTESIAN_POINT('',(34.509567,49.523097,3.));
#1345=CARTESIAN_POINT('Origin',(34.5,49.525,3.));
#1346=CARTESIAN_POINT('',(34.5,49.525,3.));
#1347=CARTESIAN_POINT('',(34.5,49.525,16.));
#1348=CARTESIAN_POINT('Origin',(-41.1311223465686,51.9726094652962,3.));
#1349=CARTESIAN_POINT('',(-41.525,49.9924583825953,3.));
#1350=CARTESIAN_POINT('',(-41.1311223465686,51.9726094652962,3.));
#1351=CARTESIAN_POINT('',(-41.525,49.9924583825953,3.));
#1352=CARTESIAN_POINT('',(-41.525,49.9924583825953,16.));
#1353=CARTESIAN_POINT('',(-41.525,49.9924583825953,3.));
#1354=CARTESIAN_POINT('',(-41.1311223465686,51.9726094652962,16.));
#1355=CARTESIAN_POINT('',(-41.525,49.9924583825953,16.));
#1356=CARTESIAN_POINT('',(-41.1311223465686,51.9726094652962,3.));
#1357=CARTESIAN_POINT('Origin',(-38.9726094652973,54.1311223465689,3.));
#1358=CARTESIAN_POINT('',(-38.9726094652973,54.1311223465689,3.));
#1359=CARTESIAN_POINT('',(-41.1311223465686,51.9726094652962,3.));
#1360=CARTESIAN_POINT('',(-38.9726094652973,54.1311223465689,16.));
#1361=CARTESIAN_POINT('',(-41.1311223465686,51.9726094652962,16.));
#1362=CARTESIAN_POINT('',(-38.9726094652973,54.1311223465689,3.));
#1363=CARTESIAN_POINT('Origin',(-36.9924583825944,54.525,3.));
#1364=CARTESIAN_POINT('',(-36.9924583825944,54.525,3.));
#1365=CARTESIAN_POINT('',(-38.9726094652973,54.1311223465689,3.));
#1366=CARTESIAN_POINT('',(-36.9924583825944,54.525,16.));
#1367=CARTESIAN_POINT('',(-38.9726094652973,54.1311223465689,16.));
#1368=CARTESIAN_POINT('',(-36.9924583825944,54.525,3.));
#1369=CARTESIAN_POINT('Origin',(34.9924583825935,54.525,3.));
#1370=CARTESIAN_POINT('',(34.9924583825935,54.525,16.));
#1371=CARTESIAN_POINT('',(-36.9924583825944,54.525,16.));
#1372=CARTESIAN_POINT('',(34.9924583825935,54.525,3.));
#1373=CARTESIAN_POINT('',(34.9924583825935,54.525,3.));
#1374=CARTESIAN_POINT('',(-36.9924583825944,54.525,3.));
#1375=CARTESIAN_POINT('',(-36.9924583825944,54.525,16.));
#1376=CARTESIAN_POINT('Origin',(36.9726094653019,54.1311223465686,3.));
#1377=CARTESIAN_POINT('',(36.9726094653019,54.1311223465686,3.));
#1378=CARTESIAN_POINT('',(34.9924583825935,54.525,3.));
#1379=CARTESIAN_POINT('',(36.9726094653019,54.1311223465686,16.));
#1380=CARTESIAN_POINT('',(34.9924583825935,54.525,16.));
#1381=CARTESIAN_POINT('',(36.9726094653019,54.1311223465686,3.));
#1382=CARTESIAN_POINT('Origin',(39.1311223465627,51.9726094652978,3.));
#1383=CARTESIAN_POINT('',(39.1311223465627,51.9726094652978,3.));
#1384=CARTESIAN_POINT('',(36.9726094653019,54.1311223465686,3.));
#1385=CARTESIAN_POINT('',(39.1311223465627,51.9726094652978,16.));
#1386=CARTESIAN_POINT('',(36.9726094653019,54.1311223465686,16.));
#1387=CARTESIAN_POINT('',(39.1311223465627,51.9726094652978,3.));
#1388=CARTESIAN_POINT('Origin',(39.525,49.9924583826043,3.));
#1389=CARTESIAN_POINT('',(39.525,49.9924583826043,3.));
#1390=CARTESIAN_POINT('',(39.1311223465627,51.9726094652978,3.));
#1391=CARTESIAN_POINT('',(39.525,49.9924583826043,16.));
#1392=CARTESIAN_POINT('',(39.1311223465627,51.9726094652978,16.));
#1393=CARTESIAN_POINT('',(39.525,49.9924583826043,3.));
#1394=CARTESIAN_POINT('Origin',(39.525,-49.4924583826034,3.));
#1395=CARTESIAN_POINT('',(39.525,-49.4924583826034,3.));
#1396=CARTESIAN_POINT('',(39.525,49.9924583826043,3.));
#1397=CARTESIAN_POINT('',(39.525,-49.4924583826034,16.));
#1398=CARTESIAN_POINT('',(39.525,49.9924583826043,16.));
#1399=CARTESIAN_POINT('',(39.525,-49.4924583826034,3.));
#1400=CARTESIAN_POINT('Origin',(39.1311223465625,-51.4726094653015,3.));
#1401=CARTESIAN_POINT('',(39.1311223465625,-51.4726094653015,3.));
#1402=CARTESIAN_POINT('',(39.525,-49.4924583826034,3.));
#1403=CARTESIAN_POINT('',(39.1311223465625,-51.4726094653015,16.));
#1404=CARTESIAN_POINT('',(39.525,-49.4924583826034,16.));
#1405=CARTESIAN_POINT('',(39.1311223465625,-51.4726094653015,3.));
#1406=CARTESIAN_POINT('Origin',(36.9726094653044,-53.6311223465625,3.));
#1407=CARTESIAN_POINT('',(36.9726094653044,-53.6311223465625,3.));
#1408=CARTESIAN_POINT('',(39.1311223465625,-51.4726094653015,3.));
#1409=CARTESIAN_POINT('',(36.9726094653044,-53.6311223465625,16.));
#1410=CARTESIAN_POINT('',(39.1311223465625,-51.4726094653015,16.));
#1411=CARTESIAN_POINT('',(36.9726094653044,-53.6311223465625,3.));
#1412=CARTESIAN_POINT('Origin',(34.9924583826025,-54.025,3.));
#1413=CARTESIAN_POINT('',(34.9924583826025,-54.025,3.));
#1414=CARTESIAN_POINT('',(36.9726094653044,-53.6311223465625,3.));
#1415=CARTESIAN_POINT('',(34.9924583826025,-54.025,16.));
#1416=CARTESIAN_POINT('',(36.9726094653044,-53.6311223465625,16.));
#1417=CARTESIAN_POINT('',(34.9924583826025,-54.025,3.));
#1418=CARTESIAN_POINT('Origin',(-36.9924583826033,-54.025,3.));
#1419=CARTESIAN_POINT('',(-36.9924583826033,-54.025,3.));
#1420=CARTESIAN_POINT('',(34.9924583826025,-54.025,3.));
#1421=CARTESIAN_POINT('',(-36.9924583826033,-54.025,16.));
#1422=CARTESIAN_POINT('',(34.9924583826025,-54.025,16.));
#1423=CARTESIAN_POINT('',(-36.9924583826033,-54.025,3.));
#1424=CARTESIAN_POINT('Origin',(-38.9726094652998,-53.6311223465629,3.));
#1425=CARTESIAN_POINT('',(-38.9726094652998,-53.6311223465629,3.));
#1426=CARTESIAN_POINT('',(-36.9924583826033,-54.025,3.));
#1427=CARTESIAN_POINT('',(-38.9726094652998,-53.6311223465629,16.));
#1428=CARTESIAN_POINT('',(-36.9924583826033,-54.025,16.));
#1429=CARTESIAN_POINT('',(-38.9726094652998,-53.6311223465629,3.));
#1430=CARTESIAN_POINT('Origin',(-41.1311223465684,-51.4726094652999,3.));
#1431=CARTESIAN_POINT('',(-41.1311223465684,-51.4726094652999,3.));
#1432=CARTESIAN_POINT('',(-38.9726094652998,-53.6311223465629,3.));
#1433=CARTESIAN_POINT('',(-41.1311223465684,-51.4726094652999,16.));
#1434=CARTESIAN_POINT('',(-38.9726094652998,-53.6311223465629,16.));
#1435=CARTESIAN_POINT('',(-41.1311223465684,-51.4726094652999,3.));
#1436=CARTESIAN_POINT('Origin',(-41.525,-49.4924583825944,3.));
#1437=CARTESIAN_POINT('',(-41.525,-49.4924583825944,3.));
#1438=CARTESIAN_POINT('',(-41.1311223465684,-51.4726094652999,3.));
#1439=CARTESIAN_POINT('',(-41.525,-49.4924583825944,16.));
#1440=CARTESIAN_POINT('',(-41.1311223465684,-51.4726094652999,16.));
#1441=CARTESIAN_POINT('',(-41.525,-49.4924583825944,3.));
#1442=CARTESIAN_POINT('Origin',(-41.525,49.9924583825953,3.));
#1443=CARTESIAN_POINT('',(-41.525,-49.4924583825944,3.));
#1444=CARTESIAN_POINT('',(-41.525,-49.4924583825944,16.));
#1445=CARTESIAN_POINT('Origin',(-0.999999999999996,0.249999999999986,16.));
#1446=CARTESIAN_POINT('Origin',(-0.999999999999996,0.249999999999986,3.));
#1447=UNCERTAINTY_MEASURE_WITH_UNIT(LENGTH_MEASURE(0.01),#1451,
'DISTANCE_ACCURACY_VALUE',
'Maximum model space distance between geometric entities at asserted c
onnectivities');
#1448=UNCERTAINTY_MEASURE_WITH_UNIT(LENGTH_MEASURE(0.01),#1451,
'DISTANCE_ACCURACY_VALUE',
'Maximum model space distance between geometric entities at asserted c
onnectivities');
#1449=(
GEOMETRIC_REPRESENTATION_CONTEXT(3)
GLOBAL_UNCERTAINTY_ASSIGNED_CONTEXT((#1447))
GLOBAL_UNIT_ASSIGNED_CONTEXT((#1451,#1453,#1454))
REPRESENTATION_CONTEXT('','3D')
);
#1450=(
GEOMETRIC_REPRESENTATION_CONTEXT(3)
GLOBAL_UNCERTAINTY_ASSIGNED_CONTEXT((#1448))
GLOBAL_UNIT_ASSIGNED_CONTEXT((#1451,#1453,#1454))
REPRESENTATION_CONTEXT('','3D')
);
#1451=(
LENGTH_UNIT()
NAMED_UNIT(*)
SI_UNIT(.MILLI.,.METRE.)
);
#1452=(
LENGTH_UNIT()
NAMED_UNIT(*)
SI_UNIT($,.METRE.)
);
#1453=(
NAMED_UNIT(*)
PLANE_ANGLE_UNIT()
SI_UNIT($,.RADIAN.)
);
#1454=(
NAMED_UNIT(*)
SI_UNIT($,.STERADIAN.)
SOLID_ANGLE_UNIT()
);
#1455=SHAPE_DEFINITION_REPRESENTATION(#1456,#1457);
#1456=PRODUCT_DEFINITION_SHAPE('',$,#1459);
#1457=SHAPE_REPRESENTATION('',(#927),#1449);
#1458=PRODUCT_DEFINITION_CONTEXT('part definition',#1463,'design');
#1459=PRODUCT_DEFINITION('2026-08-13-11-53-39-217','case housing',#1460,
#1458);
#1460=PRODUCT_DEFINITION_FORMATION('',$,#1465);
#1461=PRODUCT_RELATED_PRODUCT_CATEGORY('case housing','case housing',(#1465));
#1462=APPLICATION_PROTOCOL_DEFINITION('international standard',
'automotive_design',2009,#1463);
#1463=APPLICATION_CONTEXT(
'Core Data for Automotive Mechanical Design Process');
#1464=PRODUCT_CONTEXT('part definition',#1463,'mechanical');
#1465=PRODUCT('2026-08-13-11-53-39-217','case housing',$,(#1464));
#1466=PRESENTATION_STYLE_ASSIGNMENT((#1467));
#1467=SURFACE_STYLE_USAGE(.BOTH.,#1468);
#1468=SURFACE_SIDE_STYLE('',(#1469));
#1469=SURFACE_STYLE_FILL_AREA(#1470);
#1470=FILL_AREA_STYLE('Steel - Satin',(#1471));
#1471=FILL_AREA_STYLE_COLOUR('Steel - Satin',#1472);
#1472=COLOUR_RGB('Steel - Satin',0.627450980392157,0.627450980392157,0.627450980392157);
ENDSEC;
END-ISO-10303-21;
